<svg xmlns="http://www.w3.org/2000/svg" width="23" height="19" aria-hidden="true" class="IconSocialTwitter"><g fill="none" fill-rule="evenodd"><path d="M-1-3h24v24H-1z"/><path fill="currentColor" d="M7.233 18.5c8.68 0 13.427-6.926 13.427-12.932 0-.196 0-.392-.014-.587A9.413 9.413 0 0 0 23 2.628a9.702 9.702 0 0 1-2.71.715A4.595 4.595 0 0 0 22.364.83a9.68 9.68 0 0 1-2.996 1.103c-1.463-1.498-3.787-1.865-5.67-.895-1.882.97-2.855 3.037-2.372 5.04-3.794-.183-7.33-1.91-9.725-4.749C.348 3.406.988 6.063 3.061 7.396A4.821 4.821 0 0 1 .92 6.828v.057c0 2.164 1.584 4.027 3.786 4.455a4.886 4.886 0 0 1-2.13.078c.617 1.852 2.389 3.12 4.408 3.157a9.702 9.702 0 0 1-5.86 1.949c-.376 0-.751-.023-1.124-.066a13.735 13.735 0 0 0 7.233 2.038"/></g></svg>